<?xml version="1.0" standalone="no"?>
<!DOCTYPE svg PUBLIC "-//W3C//DTD SVG 20010904//EN"
 "http://www.w3.org/TR/2001/REC-SVG-20010904/DTD/svg10.dtd">
<svg version="1.0" xmlns="http://www.w3.org/2000/svg"
 width="3523.000000pt" height="3523.000000pt" viewBox="0 0 3523.000000 3523.000000"
 preserveAspectRatio="xMidYMid meet">

<g transform="translate(0.000000,3523.000000) scale(0.100000,-0.100000)"
fill="#000000" stroke="none">
<path d="M16920 35220 c-14 -5 -189 -18 -390 -30 -410 -23 -679 -47 -1050 -91
-1803 -216 -3580 -721 -5248 -1490 -2802 -1294 -5247 -3336 -7032 -5874 -981
-1394 -1757 -2931 -2290 -4535 -431 -1294 -710 -2622 -830 -3940 -27 -296 -60
-796 -60 -907 0 -62 -4 -103 -10 -103 -7 0 -10 -182 -10 -527 0 -324 4 -522 9
-514 16 25 19 -17 26 -299 7 -300 41 -858 58 -945 3 -16 13 -118 22 -225 9
-107 20 -214 25 -236 5 -23 16 -104 25 -180 9 -77 23 -186 32 -244 8 -58 19
-130 24 -160 4 -30 12 -77 18 -105 5 -27 18 -102 27 -165 16 -113 24 -163 44
-257 11 -57 38 -202 46 -258 4 -22 10 -47 14 -55 5 -8 20 -80 35 -160 14 -80
30 -158 36 -175 5 -16 18 -70 29 -120 41 -177 54 -231 77 -314 13 -46 23 -94
23 -107 0 -13 4 -32 9 -42 13 -24 49 -150 56 -197 4 -22 10 -49 15 -60 22 -54
60 -188 60 -213 0 -15 4 -32 8 -37 8 -10 11 -21 46 -135 9 -30 36 -117 61
-194 25 -76 45 -146 45 -155 0 -10 4 -21 9 -26 4 -6 20 -50 36 -100 15 -49 32
-101 37 -115 30 -72 37 -91 57 -155 12 -38 34 -101 48 -140 103 -282 99 -270
128 -340 30 -71 190 -474 205 -515 8 -25 23 -56 32 -70 9 -14 19 -36 23 -50 4
-14 22 -58 41 -97 19 -40 34 -75 34 -79 0 -3 15 -38 34 -77 121 -255 196 -422
196 -435 0 -6 4 -12 8 -14 4 -1 52 -93 107 -203 99 -200 284 -552 355 -675 20
-36 68 -119 105 -185 38 -66 111 -190 162 -277 51 -86 93 -161 93 -167 0 -6 4
-11 9 -11 5 0 18 -16 28 -35 18 -36 108 -178 253 -403 44 -68 80 -127 80 -133
0 -5 4 -9 9 -9 5 0 18 -15 30 -32 90 -141 131 -203 232 -343 118 -165 147
-206 164 -234 6 -9 13 -18 17 -21 13 -10 198 -262 198 -270 0 -5 4 -10 9 -12
5 -1 55 -64 113 -138 267 -347 606 -745 1015 -1191 154 -168 746 -758 948
-943 369 -340 947 -828 1198 -1011 37 -27 67 -52 67 -57 0 -4 4 -8 9 -8 8 0
260 -184 271 -198 3 -4 12 -11 22 -17 43 -27 206 -145 217 -159 8 -9 19 -16
25 -16 6 0 34 -17 61 -38 57 -42 266 -187 281 -193 5 -2 74 -47 154 -100 179
-118 347 -224 550 -346 85 -51 160 -97 167 -103 7 -5 14 -10 17 -10 2 0 33
-16 68 -36 138 -80 447 -253 523 -294 282 -152 863 -436 1093 -535 23 -10 42
-22 42 -27 0 -4 7 -8 16 -8 13 0 201 -78 335 -139 24 -11 103 -43 174 -71 72
-28 144 -57 160 -65 17 -8 64 -26 105 -40 41 -15 89 -33 105 -40 46 -20 377
-140 525 -191 25 -9 54 -19 65 -24 23 -9 54 -19 140 -45 33 -10 65 -22 70 -25
6 -4 30 -12 55 -19 73 -21 203 -61 225 -71 11 -4 49 -16 85 -25 36 -9 90 -25
120 -34 30 -10 73 -23 95 -29 22 -6 67 -18 100 -27 33 -9 68 -21 77 -26 10 -5
29 -9 42 -9 14 0 28 -5 31 -10 3 -5 17 -10 31 -10 13 0 57 -9 97 -21 39 -11
117 -31 172 -45 103 -24 139 -34 235 -59 30 -8 96 -24 145 -34 50 -10 122 -27
160 -36 39 -9 115 -25 170 -36 55 -11 118 -24 140 -29 37 -8 373 -71 475 -90
25 -4 142 -22 260 -39 118 -18 231 -36 250 -41 19 -5 89 -14 155 -20 66 -6
145 -16 175 -21 30 -5 97 -14 148 -19 52 -5 101 -11 110 -14 9 -3 116 -12 237
-21 121 -9 238 -20 260 -25 22 -5 74 -10 116 -10 42 0 111 -4 155 -10 43 -5
228 -14 409 -20 185 -6 331 -15 333 -21 2 -5 170 -9 418 -9 241 0 413 4 410 9
-3 5 72 12 172 15 176 6 548 24 672 32 61 4 264 23 645 60 88 8 242 26 342 40
100 13 200 24 222 24 22 0 50 4 63 10 13 5 118 24 233 41 271 40 473 76 745
133 41 8 118 24 170 35 145 29 381 81 420 91 19 5 60 16 90 25 30 8 100 26
155 39 104 25 293 75 380 101 28 8 84 24 125 35 103 28 228 66 335 100 50 16
117 36 150 45 33 9 69 20 80 25 11 5 58 21 105 36 47 14 94 30 105 35 11 4
117 42 235 83 118 41 258 91 310 111 52 20 129 49 170 65 41 15 138 54 215 85
77 32 160 65 185 75 94 36 425 181 600 263 216 100 254 117 265 117 8 0 15 4
17 8 2 5 138 76 303 159 314 157 531 273 802 429 89 52 167 94 173 94 5 0 10
4 10 8 0 5 12 14 27 21 15 7 89 50 164 97 75 46 141 84 147 84 6 0 12 3 14 8
2 4 35 27 73 51 39 25 107 68 152 98 46 29 85 53 88 53 3 0 25 16 51 35 25 19
52 35 59 35 7 0 15 4 17 9 2 4 48 39 103 76 55 38 180 125 279 194 98 69 188
133 200 141 104 72 493 367 666 505 586 468 880 733 1491 1344 470 470 699
715 964 1030 39 46 101 120 139 165 38 44 103 124 145 176 41 52 108 137 148
187 112 140 383 503 529 708 44 61 89 124 102 140 12 17 95 140 183 275 168
255 197 299 270 415 24 39 47 72 51 73 5 2 8 8 8 13 0 5 31 60 68 121 186 307
252 422 470 823 36 66 69 122 74 123 4 2 8 8 8 14 0 6 79 169 175 363 96 194
175 355 175 358 0 3 22 52 49 109 71 150 255 572 295 678 10 25 23 59 31 75
36 85 124 312 191 495 19 52 39 104 43 115 93 240 343 1035 430 1370 23 88 49
185 58 215 8 30 19 69 23 85 19 72 53 213 61 250 5 22 25 112 44 200 20 88 50
230 66 315 16 85 32 162 35 170 3 8 22 105 41 215 19 110 38 220 42 245 5 25
16 101 25 170 10 69 24 157 32 195 8 39 27 189 44 335 16 146 35 299 41 340 6
41 13 107 16 145 2 39 10 140 18 225 8 85 20 249 25 364 6 115 15 241 20 280
5 39 10 157 10 263 0 117 4 194 10 198 6 4 10 158 9 433 -1 235 -5 411 -9 392
-4 -20 -9 64 -13 195 -8 281 -35 718 -52 830 -3 22 -10 110 -16 195 -6 85 -15
190 -20 233 -19 167 -28 233 -33 262 -3 17 -12 86 -20 155 -24 199 -26 211
-55 390 -5 30 -14 89 -20 130 -6 41 -16 100 -21 131 -6 30 -10 69 -10 85 0 17
-4 34 -9 39 -6 6 -19 69 -30 140 -11 72 -25 153 -31 180 -21 99 -30 141 -40
205 -6 36 -16 79 -21 96 -5 17 -9 42 -9 57 0 14 -4 29 -10 32 -5 3 -10 20 -10
36 0 17 -4 38 -10 48 -8 16 -22 82 -37 176 -2 17 -8 39 -12 50 -9 23 -24 79
-47 180 -24 104 -35 145 -50 191 -12 35 -33 119 -51 204 -3 14 -11 39 -18 55
-7 17 -16 46 -20 65 -3 19 -12 55 -19 80 -8 25 -19 65 -27 90 -7 25 -16 50
-20 55 -4 6 -10 28 -14 50 -4 22 -22 85 -40 140 -18 55 -38 120 -45 145 -6 25
-16 53 -21 62 -5 10 -9 24 -9 32 0 8 -6 27 -14 43 -8 15 -24 62 -36 103 -13
41 -33 103 -46 137 -13 34 -24 68 -24 76 0 7 -3 17 -6 20 -7 6 -24 52 -64 172
-20 58 -34 92 -50 125 -4 9 -11 31 -15 50 -4 19 -11 41 -15 50 -21 40 -50 111
-55 136 -4 16 -15 47 -25 69 -31 67 -50 113 -50 121 0 8 -31 79 -54 124 -8 14
-19 43 -26 65 -7 22 -28 72 -46 112 -19 40 -34 77 -34 83 0 6 -4 18 -9 28 -9
17 -55 117 -71 157 -5 11 -25 55 -44 98 -20 42 -48 103 -62 135 -14 31 -45 98
-69 147 -24 50 -60 126 -80 170 -20 44 -43 91 -51 105 -8 14 -24 45 -35 70
-12 25 -28 56 -35 70 -8 14 -24 45 -35 70 -26 55 -35 73 -61 119 -12 20 -45
83 -75 141 -30 58 -63 119 -73 135 -9 17 -32 57 -50 90 -110 199 -237 423
-260 455 -11 15 -20 32 -20 37 -1 4 -21 40 -45 78 -25 39 -48 77 -52 85 -4 8
-11 20 -16 25 -4 6 -22 33 -38 60 -16 28 -54 90 -84 138 -30 48 -55 92 -55 96
0 4 -9 16 -20 26 -11 10 -20 22 -20 26 0 5 -16 29 -35 55 -19 25 -35 50 -35
55 0 5 -4 15 -10 22 -25 30 -77 103 -83 117 -8 16 -24 40 -72 110 -16 24 -37
53 -45 65 -8 12 -32 46 -52 76 -21 30 -51 72 -68 94 -16 22 -33 47 -37 55 -3
8 -10 18 -15 21 -4 3 -34 44 -66 91 -31 47 -78 113 -104 147 -27 34 -48 65
-48 70 0 5 -7 11 -15 15 -8 3 -15 11 -15 17 0 6 -15 29 -32 49 -18 21 -69 86
-113 145 -44 59 -96 127 -115 151 -19 24 -51 64 -70 89 -19 25 -66 83 -105
129 -38 46 -90 110 -115 142 -25 32 -65 81 -90 109 -25 28 -88 101 -140 161
-540 624 -1129 1221 -1686 1710 -169 149 -363 315 -454 389 -34 28 -87 72
-118 99 -32 26 -81 67 -111 90 -95 72 -135 104 -394 304 -23 18 -57 42 -74 53
-18 12 -33 25 -33 30 0 5 -4 9 -10 9 -5 0 -41 24 -79 53 -38 28 -99 72 -136
97 -37 25 -75 52 -85 61 -9 8 -23 19 -31 22 -8 4 -32 21 -54 37 -22 17 -83 59
-135 94 -52 35 -120 81 -151 103 -30 21 -62 43 -71 48 -77 50 -103 69 -106 76
-2 5 -10 9 -17 9 -7 0 -34 16 -59 35 -26 19 -48 35 -50 35 -4 0 -170 102 -251
155 -27 18 -66 42 -85 52 -19 11 -64 38 -98 59 -152 93 -316 188 -452 262 -36
19 -77 43 -92 54 -14 10 -30 18 -35 18 -5 0 -41 20 -81 45 -40 25 -78 45 -85
45 -7 0 -21 6 -32 14 -19 12 -134 76 -182 100 -13 6 -23 14 -23 19 0 4 -7 7
-16 7 -18 0 -117 51 -122 63 -2 4 -10 7 -17 7 -16 0 -284 135 -299 150 -6 6
-17 10 -24 10 -13 0 -73 26 -217 95 -149 71 -245 114 -285 130 -25 9 -59 25
-76 36 -17 10 -38 19 -45 19 -8 0 -39 12 -69 26 -83 39 -129 59 -195 84 -33
13 -79 31 -102 41 -23 11 -44 19 -48 19 -3 0 -27 9 -53 21 -49 22 -51 23 -147
59 -33 13 -73 28 -90 35 -16 6 -48 18 -70 25 -22 7 -56 19 -75 27 -48 21 -69
28 -115 43 -22 7 -53 18 -70 26 -16 7 -72 27 -123 43 -51 17 -107 37 -125 44
-48 22 -88 35 -127 43 -19 3 -41 10 -50 14 -29 15 -65 28 -105 38 -92 25 -161
46 -170 52 -10 6 -34 14 -150 46 -59 16 -70 20 -128 43 -15 6 -37 11 -47 11
-11 0 -41 7 -67 15 -26 8 -64 20 -83 26 -19 6 -44 14 -55 18 -11 5 -65 19
-120 31 -55 12 -113 28 -130 35 -16 7 -55 18 -85 24 -77 16 -128 28 -175 41
-53 15 -107 28 -185 45 -36 7 -85 19 -110 25 -66 16 -115 27 -205 45 -89 17
-145 29 -220 44 -27 6 -79 15 -115 21 -36 6 -72 13 -80 17 -8 3 -37 10 -65 14
-27 5 -72 12 -100 18 -27 5 -95 16 -150 25 -55 9 -129 21 -165 27 -175 29
-272 44 -435 65 -66 8 -151 20 -190 25 -123 17 -216 27 -365 38 -80 6 -154 14
-165 17 -21 6 -165 19 -365 34 -63 4 -277 13 -475 19 -198 6 -376 14 -395 18
l-35 7 35 6 c19 4 -217 7 -525 8 -308 0 -571 -4 -585 -8z m-2812 -18007 l-3
-10518 -987 -3 -988 -2 0 -1445 0 -1445 6020 0 6020 0 0 -535 0 -535 -6555 0
-6555 0 0 2515 0 2515 990 0 990 0 0 9450 0 9450 -3430 0 -3430 0 2 -3427 3
-3428 2435 0 2435 0 3 2438 2 2437 -1450 0 -1450 0 0 -1445 0 -1445 460 0 460
0 0 990 0 990 533 -2 532 -3 3 -1522 2 -1523 -1525 0 -1525 0 0 2515 0 2515
2515 0 2515 0 0 -3505 0 -3505 -3505 0 -3505 0 0 4495 0 4495 4495 0 4495 0
-2 -10517z m1984 5335 l3 -5183 1445 0 1445 0 3 5183 2 5182 530 0 530 0 0
-10520 0 -10520 -527 2 -528 3 -5 4800 -5 4800 -1447 3 -1448 2 -2 -4802 -3
-4803 -530 0 -530 0 -3 10518 -2 10517 535 0 535 0 2 -5182z m1978 457 l0
-4725 -530 0 -530 0 0 4725 0 4725 530 0 530 0 0 -4725z m12040 230 l0 -4495
-3505 0 -3505 0 0 3505 0 3505 2515 0 2515 0 0 -2515 0 -2515 -1525 0 -1525 0
2 1523 3 1522 533 3 532 2 0 -990 0 -990 460 0 460 0 0 1445 0 1445 -1450 0
-1450 0 2 -2437 3 -2438 2435 0 2435 0 3 3428 2 3427 -3430 0 -3430 0 0 -9450
0 -9450 990 0 990 0 0 -1525 0 -1525 -5562 2 -5563 3 -3 533 -2 532 5030 0
5030 0 0 455 0 455 -987 2 -988 3 -3 10518 -2 10517 4495 0 4495 0 0 -4495z
m-12042 -12197 l-3 -4343 -527 -3 -528 -2 0 4345 0 4345 530 0 530 0 -2 -4342z"/>
</g>
</svg>
